<svg xmlns="http://www.w3.org/2000/svg" xmlns:xlink="http://www.w3.org/1999/xlink" width="500" zoomAndPan="magnify" viewBox="0 0 375 374.999991" height="500" preserveAspectRatio="xMidYMid meet" version="1.0"><path fill="#5e17eb" d="M 234.453125 63.398438 C 234.699219 62.691406 234.90625 61.972656 235.066406 61.238281 C 235.230469 60.507812 235.347656 59.769531 235.421875 59.023438 C 235.496094 58.277344 235.527344 57.53125 235.515625 56.78125 C 235.5 56.03125 235.441406 55.285156 235.339844 54.542969 C 235.234375 53.800781 235.089844 53.066406 234.898438 52.34375 C 234.710938 51.617188 234.480469 50.90625 234.203125 50.207031 C 233.929688 49.511719 233.617188 48.832031 233.261719 48.171875 C 232.90625 47.511719 232.515625 46.875 232.085938 46.261719 C 231.652344 45.648438 231.1875 45.0625 230.6875 44.503906 C 230.1875 43.945312 229.660156 43.417969 229.097656 42.921875 C 228.535156 42.425781 227.945312 41.964844 227.328125 41.539062 C 226.710938 41.113281 226.070312 40.726562 225.40625 40.378906 C 224.746094 40.027344 224.0625 39.71875 223.363281 39.449219 C 222.664062 39.179688 221.949219 38.957031 221.222656 38.769531 C 220.496094 38.585938 219.761719 38.445312 219.019531 38.351562 C 218.277344 38.253906 217.53125 38.199219 216.78125 38.191406 L 179.71875 38.191406 C 177.402344 38.191406 175.101562 38.371094 172.8125 38.726562 C 170.527344 39.082031 168.277344 39.613281 166.074219 40.316406 C 163.867188 41.015625 161.726562 41.886719 159.65625 42.917969 C 157.582031 43.953125 155.601562 45.136719 153.714844 46.476562 C 151.824219 47.816406 150.050781 49.292969 148.386719 50.90625 C 146.726562 52.519531 145.199219 54.25 143.804688 56.097656 C 142.414062 57.949219 141.167969 59.894531 140.074219 61.933594 C 138.980469 63.976562 138.050781 66.089844 137.285156 68.273438 L 55.515625 301.054688 C 55.269531 301.765625 55.0625 302.492188 54.898438 303.226562 C 54.738281 303.964844 54.617188 304.707031 54.542969 305.457031 C 54.46875 306.207031 54.441406 306.960938 54.457031 307.714844 C 54.472656 308.46875 54.535156 309.21875 54.640625 309.964844 C 54.746094 310.710938 54.894531 311.449219 55.085938 312.175781 C 55.28125 312.90625 55.515625 313.621094 55.796875 314.320312 C 56.074219 315.023438 56.394531 315.703125 56.753906 316.367188 C 57.117188 317.027344 57.515625 317.667969 57.949219 318.28125 C 58.386719 318.898438 58.859375 319.484375 59.363281 320.042969 C 59.871094 320.601562 60.410156 321.128906 60.980469 321.621094 C 61.546875 322.117188 62.144531 322.574219 62.769531 322.996094 C 63.394531 323.421875 64.039062 323.804688 64.710938 324.152344 C 65.378906 324.496094 66.070312 324.800781 66.773438 325.066406 C 67.480469 325.328125 68.203125 325.550781 68.933594 325.726562 C 69.667969 325.90625 70.40625 326.039062 71.15625 326.128906 C 71.90625 326.21875 72.65625 326.261719 73.410156 326.261719 L 122.546875 326.261719 C 123.988281 326.269531 125.421875 326.167969 126.84375 325.953125 C 128.269531 325.742188 129.667969 325.417969 131.042969 324.984375 C 132.417969 324.554688 133.75 324.019531 135.039062 323.378906 C 136.328125 322.738281 137.5625 322 138.738281 321.167969 C 139.914062 320.335938 141.015625 319.417969 142.050781 318.414062 C 143.082031 317.410156 144.027344 316.332031 144.894531 315.179688 C 145.757812 314.027344 146.527344 312.816406 147.203125 311.542969 C 147.875 310.269531 148.449219 308.953125 148.917969 307.59375 L 195.675781 174.636719 Z M 234.453125 63.398438 " fill-opacity="1" fill-rule="nonzero"/><path fill="#5e17eb" d="M 317.9375 326.261719 C 318.691406 326.257812 319.441406 326.214844 320.1875 326.121094 C 320.933594 326.03125 321.675781 325.894531 322.40625 325.714844 C 323.136719 325.535156 323.855469 325.316406 324.558594 325.050781 C 325.265625 324.785156 325.949219 324.480469 326.621094 324.132812 C 327.289062 323.785156 327.933594 323.398438 328.554688 322.976562 C 329.175781 322.554688 329.773438 322.09375 330.339844 321.597656 C 330.90625 321.105469 331.445312 320.578125 331.949219 320.019531 C 332.453125 319.460938 332.921875 318.875 333.359375 318.257812 C 333.792969 317.644531 334.191406 317.007812 334.550781 316.34375 C 334.90625 315.683594 335.226562 315.003906 335.503906 314.300781 C 335.78125 313.601562 336.015625 312.890625 336.210938 312.160156 C 336.402344 311.433594 336.550781 310.695312 336.65625 309.949219 C 336.761719 309.207031 336.820312 308.457031 336.835938 307.703125 C 336.851562 306.949219 336.820312 306.199219 336.746094 305.449219 C 336.671875 304.699219 336.554688 303.957031 336.390625 303.222656 C 336.230469 302.488281 336.023438 301.765625 335.777344 301.054688 L 268.355469 108.992188 C 268.140625 108.429688 267.851562 107.910156 267.480469 107.4375 C 267.109375 106.964844 266.675781 106.558594 266.179688 106.21875 C 265.6875 105.878906 265.152344 105.617188 264.578125 105.441406 C 264.003906 105.261719 263.417969 105.171875 262.816406 105.171875 C 262.214844 105.171875 261.628906 105.261719 261.054688 105.441406 C 260.480469 105.617188 259.945312 105.878906 259.453125 106.21875 C 258.957031 106.558594 258.523438 106.964844 258.152344 107.4375 C 257.78125 107.910156 257.492188 108.429688 257.277344 108.992188 L 230.296875 185.496094 L 220.601562 213.195312 C 219.695312 215.78125 219.011719 218.421875 218.550781 221.125 C 218.089844 223.824219 217.859375 226.546875 217.859375 229.289062 C 217.859375 232.027344 218.089844 234.75 218.550781 237.449219 C 219.011719 240.152344 219.695312 242.792969 220.601562 245.378906 L 242.429688 307.648438 C 242.902344 309.007812 243.476562 310.320312 244.152344 311.589844 C 244.828125 312.859375 245.601562 314.070312 246.464844 315.21875 C 247.328125 316.367188 248.277344 317.445312 249.3125 318.445312 C 250.34375 319.445312 251.449219 320.363281 252.625 321.191406 C 253.796875 322.023438 255.03125 322.753906 256.320312 323.394531 C 257.609375 324.03125 258.941406 324.5625 260.3125 324.996094 C 261.6875 325.425781 263.085938 325.746094 264.507812 325.957031 C 265.929688 326.171875 267.359375 326.273438 268.800781 326.261719 Z M 317.9375 326.261719 " fill-opacity="1" fill-rule="nonzero"/></svg>